<svg width="40" height="40" viewBox="0 0 40 40" fill="none" xmlns="http://www.w3.org/2000/svg">
  <mask id="mask0_1599_8159" style="mask-type:luminance" maskUnits="userSpaceOnUse" x="4" y="6"
    width="32" height="28">
    <path d="M35.0231 6.71112H4.12524V33.2888H35.0231V6.71112Z" fill="white" />
  </mask>
  <g mask="url(#mask0_1599_8159)">
    <mask id="mask1_1599_8159" style="mask-type:luminance" maskUnits="userSpaceOnUse" x="4" y="6"
      width="32" height="28">
      <path d="M35.0231 6.71112H4.12524V33.2888H35.0231V6.71112Z" fill="white" />
    </mask>
    <g mask="url(#mask1_1599_8159)">
      <mask id="mask2_1599_8159" style="mask-type:luminance" maskUnits="userSpaceOnUse" x="4" y="6"
        width="32" height="28">
        <path d="M35.0231 6.71112H4.12524V33.2888H35.0231V6.71112Z" fill="white" />
      </mask>
      <g mask="url(#mask2_1599_8159)">
        <path
          d="M4.18177 14.319C4.32274 13.6065 4.90957 13.3261 5.84268 13.5161C9.12772 14.1857 11.5118 17.2442 11.5363 20.8818C11.5563 23.715 11.5241 21.2128 11.5363 24.0475C11.5532 26.7137 11.6084 30.238 14.0109 30.8816C14.4155 30.9663 14.8248 31.0266 15.2366 31.0623C15.258 31.8024 15.2856 32.5426 15.3102 33.2827H15.2964C9.6119 33.4941 9.3361 28.4391 9.32078 24.3157C9.30546 21.4228 9.32078 23.8667 9.31312 20.9738C9.31312 18.2861 7.88664 16.4228 5.31561 15.7057C4.45297 15.4667 4.05154 14.9717 4.18177 14.319Z"
          fill="#EB6263" />
        <path
          d="M32.9627 13.9742L32.7207 8.52539L29.9626 12.399C30.9933 12.8636 31.9951 13.3896 32.9627 13.9742Z"
          fill="#EB6263" />
        <path
          d="M33.1556 31.4531H31.9191C28.2756 25.7499 31.3063 19.7694 31.3063 19.7694C33.4222 18.0133 33.957 17.7252 34.3507 16.1163C34.4411 15.7517 33.7578 15.1387 32.8415 14.5258C31.8043 13.8794 30.7177 13.3158 29.5918 12.8403C29.4676 12.7959 29.3512 12.756 29.2485 12.7269L24.9262 6.71112L23.7694 12.9567C15.3423 26.1054 16.3948 33.2888 16.3948 33.2888H34.9912C34.9895 32.2756 34.1687 31.4547 33.1556 31.4531ZM24.9399 13.372C25.015 12.8388 25.5222 9.5903 25.5222 9.5903L27.9063 12.5921L24.9399 13.372Z"
          fill="#EB6263" />
      </g>
    </g>
  </g>
</svg>