<svg width="20" height="20" viewBox="0 0 20 20" fill="none" xmlns="http://www.w3.org/2000/svg">
<g id="lock">
<path id="Vector (Stroke)" fill-rule="evenodd" clip-rule="evenodd" d="M6.82612 4.21879C7.442 3.36341 8.46297 2.70898 10 2.70898C11.537 2.70898 12.558 3.36341 13.1739 4.21879C13.7668 5.0423 13.9583 6.01175 13.9583 6.66732V9.37565H14.5C15.1213 9.37565 15.625 9.87933 15.625 10.5007V16.1673C15.625 16.7886 15.1213 17.2923 14.5 17.2923H5.5C4.87868 17.2923 4.375 16.7886 4.375 16.1673V10.5007C4.375 9.87933 4.87868 9.37565 5.5 9.37565H6.04167V6.66732C6.04167 6.01175 6.2332 5.0423 6.82612 4.21879ZM7.29167 9.37565H12.7083V6.66732C12.7083 6.21178 12.5665 5.51455 12.1595 4.94917C11.7753 4.41567 11.1296 3.95898 10 3.95898C8.87037 3.95898 8.22467 4.41567 7.84054 4.94917C7.43347 5.51455 7.29167 6.21178 7.29167 6.66732V9.37565ZM5.625 10.6257V16.0423H14.375V10.6257H5.625Z" fill="#B3B3B3"/>
</g>
</svg>
