<svg width="25" height="24" viewBox="0 0 25 24" fill="none" xmlns="http://www.w3.org/2000/svg">
<path fill-rule="evenodd" clip-rule="evenodd" d="M12.5 12.75C10.1528 12.75 8.25 14.6528 8.25 17V18C8.25 18.4142 7.91421 18.75 7.5 18.75C7.08579 18.75 6.75 18.4142 6.75 18V17C6.75 13.8244 9.32436 11.25 12.5 11.25C15.6756 11.25 18.25 13.8244 18.25 17V18C18.25 18.4142 17.9142 18.75 17.5 18.75C17.0858 18.75 16.75 18.4142 16.75 18V17C16.75 14.6528 14.8472 12.75 12.5 12.75Z" fill="#6E6E73"/>
<path fill-rule="evenodd" clip-rule="evenodd" d="M12.5 6.75C11.2574 6.75 10.25 7.75736 10.25 9C10.25 10.2426 11.2574 11.25 12.5 11.25C13.7426 11.25 14.75 10.2426 14.75 9C14.75 7.75736 13.7426 6.75 12.5 6.75ZM8.75 9C8.75 6.92893 10.4289 5.25 12.5 5.25C14.5711 5.25 16.25 6.92893 16.25 9C16.25 11.0711 14.5711 12.75 12.5 12.75C10.4289 12.75 8.75 11.0711 8.75 9Z" fill="#6E6E73"/>
<path fill-rule="evenodd" clip-rule="evenodd" d="M12.5 2.75C7.39137 2.75 3.25 6.89137 3.25 12C3.25 17.1086 7.39137 21.25 12.5 21.25C17.6086 21.25 21.75 17.1086 21.75 12C21.75 6.89137 17.6086 2.75 12.5 2.75ZM1.75 12C1.75 6.06294 6.56294 1.25 12.5 1.25C18.4371 1.25 23.25 6.06294 23.25 12C23.25 17.9371 18.4371 22.75 12.5 22.75C6.56294 22.75 1.75 17.9371 1.75 12Z" fill="#6E6E73"/>
</svg>
